<?xml version="1.0" standalone="no"?>
<!DOCTYPE svg PUBLIC "-//W3C//DTD SVG 20010904//EN"
 "http://www.w3.org/TR/2001/REC-SVG-20010904/DTD/svg10.dtd">
<svg version="1.0" xmlns="http://www.w3.org/2000/svg"
 width="700.000000pt" height="700.000000pt" viewBox="0 0 700.000000 700.000000"
 preserveAspectRatio="xMidYMid meet">
<metadata>
Created by potrace 1.14, written by Peter Selinger 2001-2017
</metadata>
<g transform="translate(0.000000,700.000000) scale(0.100000,-0.100000)"
fill="#000000" stroke="none">
<path d="M3443 6782 l-23 -3 0 -300 c0 -278 -1 -299 -17 -300 -35 -1 -99 -7
-153 -15 -30 -4 -62 -8 -70 -9 -149 -19 -396 -91 -555 -163 -379 -172 -705
-446 -935 -787 -163 -242 -294 -565 -338 -835 -19 -111 -21 -133 -28 -210 -3
-41 -8 -77 -10 -80 -3 -2 -138 -4 -302 -5 l-297 0 -1 -97 c0 -60 4 -99 10
-101 6 -1 143 -3 304 -2 l292 1 1 -36 c1 -43 6 -92 20 -188 34 -236 101 -446
214 -671 296 -590 852 -1020 1500 -1160 50 -11 113 -22 140 -26 115 -15 191
-22 201 -18 7 2 15 0 18 -6 4 -5 6 -143 6 -305 l0 -296 100 0 100 0 1 83 c0
45 0 180 -1 300 -1 170 2 217 12 218 50 4 200 20 221 25 12 2 39 6 62 9 22 3
48 8 57 11 15 5 34 9 83 19 11 3 56 15 100 29 267 80 539 224 755 400 111 90
286 268 345 350 11 16 25 34 32 41 22 24 134 200 178 280 51 93 121 257 154
360 29 89 27 80 56 210 25 113 30 143 41 255 9 81 11 104 13 110 0 3 135 5
299 5 l297 0 3 101 3 100 -297 0 c-163 -1 -299 1 -302 4 -9 6 -9 9 -17 115 -9
129 -50 319 -101 475 -225 677 -770 1209 -1451 1415 -62 19 -126 37 -141 40
-15 3 -38 7 -52 10 -81 18 -197 35 -276 40 -33 2 -62 4 -66 4 -4 1 -7 136 -5
301 2 261 0 300 -13 301 -65 3 -149 3 -167 1z"/>
<path d="M3484 923 c-31 -6 -62 -43 -69 -83 -7 -40 -11 -45 -33 -45 -14 0 -17
-10 -17 -52 -1 -48 1 -53 22 -53 22 0 22 -3 25 -117 l3 -116 38 0 c20 1 51 2
67 2 l30 1 0 115 0 115 30 0 c30 0 30 0 30 56 0 50 -2 56 -19 51 -10 -2 -25
-1 -32 3 -21 13 6 38 36 33 25 -5 25 -5 40 70 2 9 0 17 -3 18 -49 4 -132 6
-148 2z"/>
<path d="M2475 800 c-65 -14 -110 -56 -129 -121 -26 -86 13 -176 89 -210 55
-24 167 -21 214 6 33 20 79 71 70 79 -2 2 -32 7 -67 10 -50 5 -66 3 -79 -9
-21 -22 -62 -15 -81 13 l-14 22 126 0 126 0 0 33 c-1 40 -23 102 -45 127 -38
42 -137 66 -210 50z m97 -102 c16 -26 7 -33 -42 -33 -55 0 -60 5 -30 35 20 20
58 20 72 -2z"/>
<path d="M2970 798 c-19 -5 -43 -17 -54 -26 -17 -16 -18 -16 -15 2 4 18 -3 20
-63 23 l-68 3 0 -169 0 -169 54 -4 c89 -5 86 -9 86 98 0 107 9 134 45 134 30
0 34 -14 38 -139 l2 -94 38 0 c20 1 51 2 67 2 l30 1 0 125 c0 95 -4 132 -17
159 -23 50 -79 71 -143 54z"/>
<path d="M3765 802 c-133 -25 -193 -173 -114 -283 28 -40 102 -71 163 -68 110
5 186 75 186 173 0 108 -60 170 -175 179 -22 2 -49 2 -60 -1z m87 -126 c16
-23 8 -93 -12 -111 -27 -24 -65 -13 -78 22 -23 66 16 136 61 111 12 -6 25 -16
29 -22z"/>
<path d="M4175 800 c-107 -23 -165 -120 -135 -229 33 -123 240 -166 338 -70
29 28 51 74 41 83 -2 2 -30 6 -63 10 -54 5 -60 4 -78 -19 -22 -28 -54 -32 -84
-11 -29 21 -27 101 3 126 27 21 74 15 80 -11 4 -15 12 -17 42 -13 20 3 50 6
66 8 34 4 36 23 4 67 -34 49 -134 76 -214 59z"/>
<path d="M4977 798 c-92 -20 -123 -76 -85 -155 12 -24 58 -44 146 -63 53 -12
69 -33 32 -43 -30 -8 -59 3 -65 24 -3 10 -11 16 -18 14 -7 -2 -36 -6 -66 -9
-29 -2 -55 -7 -58 -9 -13 -14 32 -70 70 -87 56 -25 168 -24 219 2 61 30 83 91
53 147 -17 34 -60 53 -150 67 -50 7 -63 19 -37 33 16 8 25 6 45 -9 21 -17 34
-19 86 -14 34 4 61 9 61 11 0 19 -36 66 -60 78 -35 18 -120 25 -173 13z"/>
<path d="M1999 796 c-6 -4 -3 -89 3 -93 5 -2 33 -5 63 -5 30 -1 55 -3 55 -5 0
-2 -30 -35 -67 -74 -61 -64 -68 -74 -69 -114 -2 -44 -1 -45 30 -46 227 -5 306
-3 307 9 1 16 1 69 0 82 -1 5 -34 9 -73 8 -46 0 -72 3 -71 10 1 6 33 42 71 80
64 66 68 72 64 110 l-4 40 -154 -1 c-85 0 -155 -1 -155 -1z"/>
<path d="M4465 667 c1 -151 13 -187 66 -206 46 -16 80 -14 122 8 28 14 37 16
37 6 0 -15 36 -22 95 -17 l40 4 -2 151 c-1 84 -2 159 -2 169 -1 13 -12 16 -70
15 l-69 -1 0 -75 c0 -120 -1 -129 -18 -145 -18 -18 -24 -19 -43 -7 -11 7 -15
36 -16 118 l-1 108 -70 2 -70 2 1 -132z"/>
<path d="M3190 531 l0 -69 43 -3 c23 -2 56 -3 74 -1 l31 3 -1 67 -2 67 -72 2
-73 3 0 -69z"/>
</g>
</svg>
